<svg width="16" height="15" viewBox="0 0 16 15" fill="none" xmlns="http://www.w3.org/2000/svg">
<path d="M10.3084 11.025L11.3584 9.975L8.58337 7.2V3.75H7.08337V7.8L10.3084 11.025ZM7.83337 15C6.79587 15 5.82087 14.8031 4.90837 14.4094C3.99587 14.0156 3.20212 13.4813 2.52712 12.8063C1.85212 12.1313 1.31775 11.3375 0.923999 10.425C0.530249 9.5125 0.333374 8.5375 0.333374 7.5C0.333374 6.4625 0.530249 5.4875 0.923999 4.575C1.31775 3.6625 1.85212 2.86875 2.52712 2.19375C3.20212 1.51875 3.99587 0.984375 4.90837 0.590625C5.82087 0.196875 6.79587 0 7.83337 0C8.87087 0 9.84587 0.196875 10.7584 0.590625C11.6709 0.984375 12.4646 1.51875 13.1396 2.19375C13.8146 2.86875 14.349 3.6625 14.7427 4.575C15.1365 5.4875 15.3334 6.4625 15.3334 7.5C15.3334 8.5375 15.1365 9.5125 14.7427 10.425C14.349 11.3375 13.8146 12.1313 13.1396 12.8063C12.4646 13.4813 11.6709 14.0156 10.7584 14.4094C9.84587 14.8031 8.87087 15 7.83337 15ZM7.83337 13.5C9.49587 13.5 10.9115 12.9156 12.0802 11.7469C13.249 10.5781 13.8334 9.1625 13.8334 7.5C13.8334 5.8375 13.249 4.42188 12.0802 3.25313C10.9115 2.08438 9.49587 1.5 7.83337 1.5C6.17087 1.5 4.75525 2.08438 3.5865 3.25313C2.41775 4.42188 1.83337 5.8375 1.83337 7.5C1.83337 9.1625 2.41775 10.5781 3.5865 11.7469C4.75525 12.9156 6.17087 13.5 7.83337 13.5Z" fill="currentColor"/>
</svg>
