<svg width="22" height="22" viewBox="0 0 22 22" fill="none" xmlns="http://www.w3.org/2000/svg">
<path d="M3.66675 3.66666H9.16675" stroke="currentColor" stroke-linecap="round" stroke-linejoin="round"/>
<path d="M12.8333 3.66666H18.3333" stroke="currentColor" stroke-linecap="round" stroke-linejoin="round"/>
<path d="M7.33341 7.33334H5.50008C4.48756 7.33334 3.66675 8.15415 3.66675 9.16667V16.5C3.66675 17.5125 4.48756 18.3333 5.50008 18.3333H7.33341C8.34594 18.3333 9.16675 17.5125 9.16675 16.5V9.16667C9.16675 8.15415 8.34594 7.33334 7.33341 7.33334Z" stroke="currentColor" stroke-linecap="round" stroke-linejoin="round"/>
<path d="M16.4999 7.33334H14.6666C13.6541 7.33334 12.8333 8.15415 12.8333 9.16667V11C12.8333 12.0125 13.6541 12.8333 14.6666 12.8333H16.4999C17.5124 12.8333 18.3333 12.0125 18.3333 11V9.16667C18.3333 8.15415 17.5124 7.33334 16.4999 7.33334Z" stroke="currentColor" stroke-linecap="round" stroke-linejoin="round"/>
</svg>
