<svg width="14" height="15" viewBox="0 0 14 15" fill="none" xmlns="http://www.w3.org/2000/svg">
<path fill-rule="evenodd" clip-rule="evenodd" d="M2.28915 2.65786C3.90309 1.22738 5.99028 0.500031 7.99023 0.500031C9.70355 0.500031 11.3817 1.03517 12.6469 2.1487L12.6473 2.14905L12.6477 2.1494C14.4516 3.74337 14.4518 6.38289 12.6483 7.97707C12.6481 7.97723 12.6479 7.97738 12.6477 7.97754L11.629 8.88193C11.629 8.88195 11.629 8.88197 11.629 8.88199C11.4872 9.00788 11.449 9.12901 11.449 9.21634C11.449 9.30368 11.4872 9.42484 11.629 9.55075L11.6299 9.55149L11.6307 9.55223C11.7219 9.63395 11.7682 9.66265 11.8114 9.68199C11.8618 9.7046 11.9419 9.72924 12.1198 9.75863L12.1207 9.75878L12.1216 9.75893C12.1367 9.76148 12.153 9.76413 12.1703 9.76695C12.4203 9.80771 12.886 9.88363 13.2254 10.1973L13.2264 10.1983L13.2274 10.1992C13.5485 10.4989 13.7146 10.9376 13.7282 11.3579C13.742 11.7852 13.5991 12.2606 13.2136 12.6011C11.7924 13.8644 9.82038 14.5 7.84888 14.5H7.78973L7.78779 14.5C5.81438 14.4857 3.79815 13.8347 2.28943 12.5006C-0.76305 9.80268 -0.763144 5.35585 2.28915 2.65786ZM7.99023 1.57695C6.24128 1.57695 4.41132 2.21584 3.0032 3.46402L3.00291 3.46428L3.00261 3.46454C0.43502 5.73386 0.43502 9.42431 3.00261 11.6936L3.00273 11.6937C4.28677 12.8293 6.03888 13.41 7.7936 13.4231H7.84888C9.60586 13.4231 11.3084 12.8541 12.4988 11.7957L12.4996 11.7949L12.5004 11.7942C12.5988 11.7074 12.6575 11.5673 12.6518 11.3926C12.646 11.2112 12.5721 11.0614 12.4935 10.9873C12.412 10.9128 12.2664 10.8755 11.9435 10.821C11.7347 10.7865 11.5475 10.7438 11.371 10.6647C11.1873 10.5824 11.047 10.4751 10.913 10.3551C10.5741 10.0538 10.3721 9.65192 10.3721 9.21634C10.3721 8.78036 10.5744 8.37821 10.9139 8.07672L11.9342 7.17095L11.9346 7.17054C13.2535 6.00518 13.2536 4.12227 11.935 2.95677C10.8984 2.04458 9.48729 1.57695 7.99023 1.57695Z" fill="currentColor"/>
<path d="M3.23134 6.96154C3.8261 6.96154 4.30826 6.47939 4.30826 5.88462C4.30826 5.28985 3.8261 4.8077 3.23134 4.8077C2.63657 4.8077 2.15442 5.28985 2.15442 5.88462C2.15442 6.47939 2.63657 6.96154 3.23134 6.96154Z" fill="currentColor"/>
<path d="M3.5005 10.4279C4.09527 10.4279 4.57742 9.94572 4.57742 9.35095C4.57742 8.75619 4.09527 8.27403 3.5005 8.27403C2.90574 8.27403 2.42358 8.75619 2.42358 9.35095C2.42358 9.94572 2.90574 10.4279 3.5005 10.4279Z" fill="currentColor"/>
<path d="M5.9236 4.80771C6.51836 4.80771 7.00052 4.32555 7.00052 3.73079C7.00052 3.13602 6.51836 2.65387 5.9236 2.65387C5.32883 2.65387 4.84668 3.13602 4.84668 3.73079C4.84668 4.32555 5.32883 4.80771 5.9236 4.80771Z" fill="currentColor"/>
<path d="M7.00051 12.8509C7.89266 12.8509 8.61589 12.1277 8.61589 11.2356C8.61589 10.3434 7.89266 9.62019 7.00051 9.62019C6.10836 9.62019 5.38513 10.3434 5.38513 11.2356C5.38513 12.1277 6.10836 12.8509 7.00051 12.8509Z" fill="currentColor"/>
<path d="M9.4236 4.80771C10.0184 4.80771 10.5005 4.32555 10.5005 3.73079C10.5005 3.13602 10.0184 2.65387 9.4236 2.65387C8.82883 2.65387 8.34668 3.13602 8.34668 3.73079C8.34668 4.32555 8.82883 4.80771 9.4236 4.80771Z" fill="currentColor"/>
</svg>
