<svg width="20" height="20" viewBox="0 0 20 20" fill="none" xmlns="http://www.w3.org/2000/svg">
<path d="M7.70833 18.3333L7.375 15.6667C7.19444 15.5972 7.02431 15.5139 6.86458 15.4167C6.70486 15.3194 6.54861 15.2153 6.39583 15.1042L3.91667 16.1458L1.625 12.1875L3.77083 10.5625C3.75694 10.4653 3.75 10.3715 3.75 10.2812V9.71874C3.75 9.62846 3.75694 9.53471 3.77083 9.43749L1.625 7.81249L3.91667 3.85416L6.39583 4.89582C6.54861 4.78471 6.70833 4.68055 6.875 4.58332C7.04167 4.4861 7.20833 4.40277 7.375 4.33332L7.70833 1.66666H12.2917L12.625 4.33332C12.8056 4.40277 12.9757 4.4861 13.1354 4.58332C13.2951 4.68055 13.4514 4.78471 13.6042 4.89582L16.0833 3.85416L18.375 7.81249L16.2292 9.43749C16.2431 9.53471 16.25 9.62846 16.25 9.71874V10.2812C16.25 10.3715 16.2361 10.4653 16.2083 10.5625L18.3542 12.1875L16.0625 16.1458L13.6042 15.1042C13.4514 15.2153 13.2917 15.3194 13.125 15.4167C12.9583 15.5139 12.7917 15.5972 12.625 15.6667L12.2917 18.3333H7.70833ZM9.16667 16.6667H10.8125L11.1042 14.4583C11.5347 14.3472 11.934 14.184 12.3021 13.9687C12.6701 13.7535 13.0069 13.493 13.3125 13.1875L15.375 14.0417L16.1875 12.625L14.3958 11.2708C14.4653 11.0764 14.5139 10.8715 14.5417 10.6562C14.5694 10.441 14.5833 10.2222 14.5833 9.99999C14.5833 9.77777 14.5694 9.55902 14.5417 9.34374C14.5139 9.12846 14.4653 8.9236 14.3958 8.72916L16.1875 7.37499L15.375 5.95832L13.3125 6.83332C13.0069 6.51388 12.6701 6.24652 12.3021 6.03124C11.934 5.81596 11.5347 5.65277 11.1042 5.54166L10.8333 3.33332H9.1875L8.89583 5.54166C8.46528 5.65277 8.06597 5.81596 7.69792 6.03124C7.32986 6.24652 6.99306 6.50693 6.6875 6.81249L4.625 5.95832L3.8125 7.37499L5.60417 8.70832C5.53472 8.91666 5.48611 9.12499 5.45833 9.33332C5.43056 9.54166 5.41667 9.76388 5.41667 9.99999C5.41667 10.2222 5.43056 10.4375 5.45833 10.6458C5.48611 10.8542 5.53472 11.0625 5.60417 11.2708L3.8125 12.625L4.625 14.0417L6.6875 13.1667C6.99306 13.4861 7.32986 13.7535 7.69792 13.9687C8.06597 14.184 8.46528 14.3472 8.89583 14.4583L9.16667 16.6667ZM10.0417 12.9167C10.8472 12.9167 11.5347 12.6319 12.1042 12.0625C12.6736 11.493 12.9583 10.8055 12.9583 9.99999C12.9583 9.19443 12.6736 8.50693 12.1042 7.93749C11.5347 7.36805 10.8472 7.08332 10.0417 7.08332C9.22222 7.08332 8.53125 7.36805 7.96875 7.93749C7.40625 8.50693 7.125 9.19443 7.125 9.99999C7.125 10.8055 7.40625 11.493 7.96875 12.0625C8.53125 12.6319 9.22222 12.9167 10.0417 12.9167Z" fill="#072A58"/>
</svg>
