<svg width="8" height="15" viewBox="0 0 8 15" fill="none" xmlns="http://www.w3.org/2000/svg">
<path d="M4 13.5C3.5875 13.5 3.23438 13.3531 2.94063 13.0594C2.64688 12.7656 2.5 12.4125 2.5 12C2.5 11.5875 2.64688 11.2344 2.94063 10.9406C3.23438 10.6469 3.5875 10.5 4 10.5C4.4125 10.5 4.76562 10.6469 5.05938 10.9406C5.35313 11.2344 5.5 11.5875 5.5 12C5.5 12.4125 5.35313 12.7656 5.05938 13.0594C4.76562 13.3531 4.4125 13.5 4 13.5ZM4 9C3.5875 9 3.23438 8.85313 2.94063 8.55938C2.64688 8.26563 2.5 7.9125 2.5 7.5C2.5 7.0875 2.64688 6.73438 2.94063 6.44063C3.23438 6.14687 3.5875 6 4 6C4.4125 6 4.76562 6.14687 5.05938 6.44063C5.35313 6.73438 5.5 7.0875 5.5 7.5C5.5 7.9125 5.35313 8.26563 5.05938 8.55938C4.76562 8.85313 4.4125 9 4 9ZM4 4.5C3.5875 4.5 3.23438 4.35313 2.94063 4.05938C2.64688 3.76562 2.5 3.4125 2.5 3C2.5 2.5875 2.64688 2.23438 2.94063 1.94063C3.23438 1.64688 3.5875 1.5 4 1.5C4.4125 1.5 4.76562 1.64688 5.05938 1.94063C5.35313 2.23438 5.5 2.5875 5.5 3C5.5 3.4125 5.35313 3.76562 5.05938 4.05938C4.76562 4.35313 4.4125 4.5 4 4.5Z" fill="currentColor"/>
</svg>
