<svg width="124" height="40" viewBox="0 0 124 40" fill="none" xmlns="http://www.w3.org/2000/svg">
<g clip-path="url(#clip0_1_3)">
<path d="M37 0H7C4.23858 0 2 2.23858 2 5V35C2 37.7614 4.23858 40 7 40H37C39.7614 40 42 37.7614 42 35V5C42 2.23858 39.7614 0 37 0Z" fill="#6366F1"/>
<path d="M77 0H47C44.2386 0 42 2.23858 42 5V35C42 37.7614 44.2386 40 47 40H77C79.7614 40 82 37.7614 82 35V5C82 2.23858 79.7614 0 77 0Z" fill="#6366F1" fill-opacity="0.95"/>
<path d="M117 0H87C84.2386 0 82 2.23858 82 5V35C82 37.7614 84.2386 40 87 40H117C119.761 40 122 37.7614 122 35V5C122 2.23858 119.761 0 117 0Z" fill="#6366F1" fill-opacity="0.9"/>
<path d="M2 33C28.6667 48.5885 95.3333 17.4115 122 33" stroke="#9597F6" stroke-width="4"/>
<g filter="url(#filter0_d_1_3)">
<path d="M28.3672 26L24.2734 14.5469H26.7812L29.6797 23.0234L32.4844 14.5469H34.9375L30.8359 26H28.3672ZM35.8047 16.5781V14.5469H38V16.5781H35.8047ZM35.8047 26V17.7031H38V26H35.8047ZM42.5391 26L39.1953 17.7031H41.5L43.0625 21.9375L43.5156 23.3516C43.6354 22.9922 43.7109 22.7552 43.7422 22.6406C43.8151 22.4062 43.8932 22.1719 43.9766 21.9375L45.5547 17.7031H47.8125L44.5156 26H42.5391ZM49.1641 16.5781V14.5469H51.3594V16.5781H49.1641ZM49.1641 26V17.7031H51.3594V26H49.1641ZM61.2266 26H59.1875V24.7812C58.849 25.2552 58.4479 25.6094 57.9844 25.8438C57.526 26.0729 57.0625 26.1875 56.5938 26.1875C55.6406 26.1875 54.8229 25.8047 54.1406 25.0391C53.4635 24.2682 53.125 23.1953 53.125 21.8203C53.125 20.4141 53.4557 19.3464 54.1172 18.6172C54.7786 17.8828 55.6146 17.5156 56.625 17.5156C57.5521 17.5156 58.3542 17.901 59.0312 18.6719V14.5469H61.2266V26ZM55.3672 21.6719C55.3672 22.5573 55.4896 23.1979 55.7344 23.5938C56.0885 24.1667 56.5833 24.4531 57.2188 24.4531C57.724 24.4531 58.1536 24.2396 58.5078 23.8125C58.862 23.3802 59.0391 22.737 59.0391 21.8828C59.0391 20.9297 58.8672 20.2448 58.5234 19.8281C58.1797 19.4062 57.7396 19.1953 57.2031 19.1953C56.6823 19.1953 56.2448 19.4036 55.8906 19.8203C55.5417 20.2318 55.3672 20.849 55.3672 21.6719ZM63.4297 26V14.5469H71.2812V16.4844H65.7422V19.1953H70.5234V21.1328H65.7422V26H63.4297ZM73.1797 26V14.5469H75.375V26H73.1797ZM77.125 21.7344C77.125 21.0052 77.3047 20.2995 77.6641 19.6172C78.0234 18.9349 78.5312 18.4141 79.1875 18.0547C79.849 17.6953 80.5859 17.5156 81.3984 17.5156C82.6536 17.5156 83.6823 17.9245 84.4844 18.7422C85.2865 19.5547 85.6875 20.5833 85.6875 21.8281C85.6875 23.0833 85.2812 24.125 84.4688 24.9531C83.6615 25.776 82.6432 26.1875 81.4141 26.1875C80.6536 26.1875 79.9271 26.0156 79.2344 25.6719C78.5469 25.3281 78.0234 24.8255 77.6641 24.1641C77.3047 23.4974 77.125 22.6875 77.125 21.7344ZM79.375 21.8516C79.375 22.6745 79.5703 23.3047 79.9609 23.7422C80.3516 24.1797 80.8333 24.3984 81.4062 24.3984C81.9792 24.3984 82.4583 24.1797 82.8438 23.7422C83.2344 23.3047 83.4297 22.6693 83.4297 21.8359C83.4297 21.0234 83.2344 20.3984 82.8438 19.9609C82.4583 19.5234 81.9792 19.3047 81.4062 19.3047C80.8333 19.3047 80.3516 19.5234 79.9609 19.9609C79.5703 20.3984 79.375 21.0286 79.375 21.8516ZM88.9609 26L86.3359 17.7031H88.4688L90.0234 23.1406L91.4531 17.7031H93.5703L94.9531 23.1406L96.5391 17.7031H98.7031L96.0391 26H93.9297L92.5 20.6641L91.0938 26H88.9609Z" fill="white"/>
</g>
</g>
<defs>
<filter id="filter0_d_1_3" x="16.2734" y="11.5469" width="90.4297" height="27.6406" filterUnits="userSpaceOnUse" color-interpolation-filters="sRGB">
<feFlood flood-opacity="0" result="BackgroundImageFix"/>
<feColorMatrix in="SourceAlpha" type="matrix" values="0 0 0 0 0 0 0 0 0 0 0 0 0 0 0 0 0 0 127 0" result="hardAlpha"/>
<feOffset dy="5"/>
<feGaussianBlur stdDeviation="4"/>
<feComposite in2="hardAlpha" operator="out"/>
<feColorMatrix type="matrix" values="0 0 0 0 0 0 0 0 0 0 0 0 0 0 0 0 0 0 0.2 0"/>
<feBlend mode="normal" in2="BackgroundImageFix" result="effect1_dropShadow_1_3"/>
<feBlend mode="normal" in="SourceGraphic" in2="effect1_dropShadow_1_3" result="shape"/>
</filter>
<clipPath id="clip0_1_3">
<rect width="124" height="40" fill="white"/>
</clipPath>
</defs>
</svg>
